<svg width="60" height="39" viewBox="0 0 60 39" fill="none" xmlns="http://www.w3.org/2000/svg">
<path d="M25.2 17.6475C25.325 17.1112 25.6 16.64 25.95 16.2337C26.3 15.8275 26.8 15.4862 27.425 15.2262C28.025 14.9825 28.775 14.8688 29.7 14.8525C30.275 14.8688 30.8 14.9338 31.275 15.0638C31.775 15.21 32.225 15.405 32.575 15.6488C32.925 15.8925 33.2 16.185 33.425 16.51C33.65 16.835 33.75 17.1925 33.775 17.55H38.25C38.2 16.7863 37.975 16.0875 37.55 15.4538C37.125 14.82 36.55 14.2675 35.8 13.8125C35.05 13.3575 34.15 13 33.1 12.74C32.05 12.48 30.9 12.3663 29.625 12.3663C28 12.3663 26.575 12.545 25.375 12.9187C24.175 13.2925 23.175 13.78 22.375 14.4137C21.575 15.0475 20.975 15.7787 20.6 16.6237C20.225 17.4687 20 18.3462 20 19.2887V19.7275C20 20.67 20.2 21.5475 20.575 22.3925C20.95 23.2375 21.55 23.9688 22.35 24.5863C23.15 25.2038 24.15 25.7075 25.35 26.065C26.55 26.4225 27.975 26.6175 29.6 26.6175C30.775 26.6175 31.875 26.4875 32.9 26.2437C33.925 26 34.825 25.6588 35.6 25.22C36.375 24.7813 37 24.2775 37.45 23.6925C37.9 23.1075 38.175 22.49 38.2 21.8238H33.725C33.7 22.165 33.575 22.4738 33.35 22.7663C33.125 23.0588 32.825 23.3025 32.45 23.5138C32.075 23.725 31.65 23.8875 31.15 24.0013C30.675 24.115 30.175 24.1475 29.65 24.1637C28.75 24.1475 28 24.0338 27.425 23.79C26.8 23.53 26.3 23.1888 25.95 22.7825C25.6 22.3763 25.325 21.8888 25.2 21.3525C25.075 20.8163 25 20.2638 25 19.7275V19.2887C25 18.72 25.075 18.1837 25.2 17.6475ZM30 3.25C16.2 3.25 5 10.53 5 19.5C5 28.47 16.2 35.75 30 35.75C43.8 35.75 55 28.47 55 19.5C55 10.53 43.8 3.25 30 3.25ZM30 32.5C18.975 32.5 10 26.6662 10 19.5C10 12.3338 18.975 6.5 30 6.5C41.025 6.5 50 12.3338 50 19.5C50 26.6662 41.025 32.5 30 32.5Z" fill="#F8F8F8"/>
</svg>
