<svg width="43" height="48" viewBox="0 0 43 48" fill="none" xmlns="http://www.w3.org/2000/svg">
<path d="M35.7438 42C31.8917 42 28.1369 41.05 24.4795 39.15C20.8222 37.25 17.5822 34.7167 14.7597 31.55C11.9373 28.3833 9.66783 24.758 7.95142 20.674C6.235 16.59 5.37619 12.3987 5.375 8.1V7.05C5.375 6.68333 5.40486 6.33333 5.46458 6H15.9458L17.6031 16.05L12.4969 21.8C13.751 24.2 15.3265 26.45 17.2233 28.55C19.1201 30.65 21.2026 32.4667 23.4708 34L28.6667 28.2L37.625 30.2V41.9C37.3264 41.9333 37.0128 41.9587 36.6844 41.976C36.3559 41.9933 36.0424 42.0013 35.7438 42Z" fill="#545454"/>
</svg>
