<svg width="41" height="48" viewBox="0 0 41 48" fill="none" xmlns="http://www.w3.org/2000/svg">
<path d="M20.5 22.8C18.5582 22.8 16.696 22.1679 15.323 21.0426C13.9499 19.9174 13.1786 18.3913 13.1786 16.8C13.1786 15.2087 13.9499 13.6826 15.323 12.5574C16.696 11.4321 18.5582 10.8 20.5 10.8C22.4418 10.8 24.304 11.4321 25.677 12.5574C27.0501 13.6826 27.8214 15.2087 27.8214 16.8C27.8214 17.5879 27.6321 18.3681 27.2641 19.0961C26.8962 19.8241 26.3569 20.4855 25.677 21.0426C24.9972 21.5998 24.1901 22.0418 23.3018 22.3433C22.4135 22.6448 21.4615 22.8 20.5 22.8ZM20.5 0C15.0631 0 9.84881 1.76999 6.00431 4.92061C2.15982 8.07122 0 12.3444 0 16.8C0 29.4 20.5 48 20.5 48C20.5 48 41 29.4 41 16.8C41 12.3444 38.8402 8.07122 34.9957 4.92061C31.1512 1.76999 25.9369 0 20.5 0Z" fill="#070A08"/>
</svg>
