<svg width="54" height="61" viewBox="0 0 54 61" fill="none" xmlns="http://www.w3.org/2000/svg">
<path d="M50.85 60.9998C44.4 60.9998 38.113 59.39 31.989 56.1706C25.865 52.9512 20.44 48.6586 15.714 43.2929C10.988 37.9272 7.188 31.7843 4.314 24.8642C1.44 17.9441 0.002 10.8421 0 3.55832V1.77916C0 1.15787 0.0499999 0.564813 0.15 0H17.7L20.475 17.0291L11.925 26.7721C14.025 30.8388 16.663 34.6512 19.839 38.2096C23.015 41.7679 26.502 44.8461 30.3 47.4443L39 37.6165L54 41.0054V60.8303C53.5 60.8868 52.975 60.9297 52.425 60.9591C51.875 60.9885 51.35 61.002 50.85 60.9998Z" fill="#100F0F"/>
</svg>
