<svg width="29" height="23" viewBox="0 0 29 23" fill="none" xmlns="http://www.w3.org/2000/svg">
<path d="M26.2946 12.6667H16.4319V20.5833C16.4319 21.0033 16.2241 21.406 15.8542 21.7029C15.4842 21.9999 14.9825 22.1667 14.4594 22.1667C13.9362 22.1667 13.4345 21.9999 13.0646 21.7029C12.6947 21.406 12.4868 21.0033 12.4868 20.5833V12.6667H2.62415C2.101 12.6667 1.59928 12.4999 1.22935 12.2029C0.859432 11.906 0.651611 11.5033 0.651611 11.0833C0.651611 10.6634 0.859432 10.2607 1.22935 9.96375C1.59928 9.66682 2.101 9.5 2.62415 9.5H12.4868V1.58333C12.4868 1.16341 12.6947 0.76068 13.0646 0.463747C13.4345 0.166815 13.9362 0 14.4594 0C14.9825 0 15.4842 0.166815 15.8542 0.463747C16.2241 0.76068 16.4319 1.16341 16.4319 1.58333V9.5H26.2946C26.8177 9.5 27.3195 9.66682 27.6894 9.96375C28.0593 10.2607 28.2671 10.6634 28.2671 11.0833C28.2671 11.5033 28.0593 11.906 27.6894 12.2029C27.3195 12.4999 26.8177 12.6667 26.2946 12.6667Z" fill="#545454"/>
</svg>
